<?xml version="1.0" encoding="UTF-8"?>
<svg version="1.1" xmlns="http://www.w3.org/2000/svg" width="512" height="512">
<path d="M0 0 C2.76037151 1.29081104 5.19208537 2.94671769 7.6875 4.6875 C8.40808594 5.17226807 9.12867188 5.65703613 9.87109375 6.15649414 C11.43151337 7.20722312 12.98786712 8.2640104 14.54052734 9.32617188 C17.07075358 11.04815233 19.6197314 12.73849479 22.17578125 14.421875 C37.84851545 24.75540319 53.25079553 35.37881473 68 47 C68.84691406 47.66386719 69.69382812 48.32773438 70.56640625 49.01171875 C84.7532658 60.23823842 98.30083556 72.10874736 111 85 C113.36379056 87.37475095 115.73211178 89.74091103 118.140625 92.0703125 C123.91443407 97.69443023 129.04178364 103.65000361 134 110 C134.70261963 110.895979 134.70261963 110.895979 135.41943359 111.81005859 C142.70287037 121.14396438 149.23073118 130.66224916 155 141 C155.40460449 141.71494629 155.80920898 142.42989258 156.22607422 143.16650391 C182.2133189 189.39602376 192.1013284 247.45987234 178.18212891 299.08813477 C167.51095049 335.71090819 141.71631298 366.14042355 109.13671875 385.32421875 C106 387 106 387 104 387 C104.07154297 388.72476563 104.07154297 388.72476563 104.14453125 390.484375 C104.14065833 397.08900115 103.04653525 403.55624902 102.02856445 410.06396484 C101.69058859 412.23020386 101.36501618 414.39803806 101.04101562 416.56640625 C100.03909681 423.17102793 98.93254115 429.75371397 97.58203125 436.296875 C97.37425049 437.30588867 97.16646973 438.31490234 96.95239258 439.35449219 C95.84222329 442.43826416 94.50831136 443.9241978 92 446 C88.18125457 447.01435425 84.92932014 446.51112608 81.5 444.625 C77.24164168 437.17287294 80.84221799 426.27748578 82.375 418.375 C84.26398293 408.2695045 85.93605365 398.22658882 87 388 C86.46375 387.87625 85.9275 387.7525 85.375 387.625 C69.62238825 383.47957586 54.54388098 374.42331826 43 363 C41.57337781 360.14675563 41.68966132 358.16545451 42 355 C43.5 352.125 43.5 352.125 46 350 C50.67633201 349.44001907 53.61717283 349.35330334 57.5 352.125 C58.67866744 353.06853429 59.844943 354.02770518 61 355 C69.14421723 361.42821857 78.110375 366.70345833 88 370 C88.92727532 367.21817403 89.18718757 365.2714167 89.31640625 362.37890625 C89.35854248 361.45505127 89.40067871 360.53119629 89.4440918 359.5793457 C89.4831665 358.58378662 89.52224121 357.58822754 89.5625 356.5625 C89.6035083 355.5211792 89.6445166 354.4798584 89.68676758 353.40698242 C89.80216842 350.27156785 89.90499777 347.13609498 90 344 C90.03722168 342.78280273 90.03722168 342.78280273 90.07519531 341.54101562 C92.33428328 253.55145389 68.45064633 165.43552611 1 33 C0.52044717 38.12323877 0.06561697 43.24829193 -0.375 48.375 C-0.44380371 49.17212402 -0.51260742 49.96924805 -0.58349609 50.79052734 C-1.50470984 61.65827271 -2.15350198 72.51381422 -2.5390625 83.4140625 C-2.57937592 84.5420224 -2.61968933 85.6699823 -2.66122437 86.8321228 C-2.85624455 92.43891539 -3.02871797 98.04559885 -3.17724609 103.65380859 C-3.24291444 105.72754698 -3.30882114 107.80127784 -3.375 109.875 C-3.39374176 110.82557281 -3.41248352 111.77614563 -3.43179321 112.75552368 C-3.59774898 117.59808324 -3.79551876 121.10095139 -7 125 C-10.13871188 126.56935594 -12.53855822 126.35201103 -16 126 C-18.96612604 123.98114832 -20.73439762 122.37998742 -21.43041992 118.76367188 C-21.57397684 115.84768907 -21.53309681 112.98065978 -21.4375 110.0625 C-21.4070459 108.36468384 -21.4070459 108.36468384 -21.37597656 106.63256836 C-21.28808698 102.75327746 -21.15035019 98.8772229 -21 95 C-20.97488342 94.30616211 -20.94976685 93.61232422 -20.92388916 92.89746094 C-20.20823194 73.15364196 -18.81382384 53.48471631 -17 33.8125 C-16.91641235 32.89598663 -16.83282471 31.97947327 -16.7467041 31.03518677 C-14.30633683 4.55481519 -14.30633683 4.55481519 -11.55859375 1.28442383 C-7.88650251 -1.74171528 -4.39137867 -1.09416474 0 0 Z M25 38 C26.3768702 41.59813955 27.96574612 44.98518323 29.7578125 48.39453125 C30.29680176 49.42392822 30.83579102 50.4533252 31.39111328 51.51391602 C31.9632959 52.60244873 32.53547852 53.69098145 33.125 54.8125 C34.3132888 57.08812995 35.50079092 59.36417085 36.6875 61.640625 C37.26113281 62.74083984 37.83476562 63.84105469 38.42578125 64.97460938 C60.2409708 106.89983099 77.32941351 151.18082089 89 197 C89.43022461 198.67811768 89.43022461 198.67811768 89.86914062 200.39013672 C99.7841936 239.58051767 106.26390404 280.32377048 106.09765625 320.80859375 C106.09578352 322.1547897 106.09436368 323.50098634 106.09336853 324.84718323 C106.08961048 328.33389275 106.07984049 331.8205584 106.06866455 335.30725098 C106.05830318 338.88777066 106.05383988 342.46829766 106.04882812 346.04882812 C106.03820976 353.03256973 106.02121774 360.01628274 106 367 C107.10069824 366.37923584 108.20139648 365.75847168 109.33544922 365.11889648 C109.95459198 364.76971664 110.57373474 364.4205368 111.2116394 364.06077576 C137.89394865 348.23401976 156.00125502 318.0911488 163.57470703 288.77539062 C164.56374224 284.54424499 165.35040013 280.29735295 166 276 C166.27457031 274.26169922 166.27457031 274.26169922 166.5546875 272.48828125 C171.29730106 232.90970382 162.51642717 190.71162296 143.90820312 155.71484375 C143.10294165 154.19437154 142.32299606 152.66055134 141.546875 151.125 C133.36470762 135.32495264 122.04773875 121.42077134 110.11328125 108.33203125 C108.22623463 106.24965264 106.38941767 104.13496936 104.5625 102 C97.93906576 94.41064827 90.65994396 87.52465414 83 81 C81.99526951 80.12073263 80.9914377 79.24043777 79.98828125 78.359375 C67.78584167 67.69493824 54.83817624 58.06511888 41.8125 48.4375 C41.02270752 47.85371582 40.23291504 47.26993164 39.41918945 46.66845703 C32.73310534 40.92239136 32.73310534 40.92239136 25 38 Z " fill="#52df0c" transform="translate(239,42)"/>
<path d="M0 0 C2.66696688 0.61021163 5.3028279 1.29410277 7.94287109 2.01196289 C8.93488525 2.27783203 9.92689941 2.54370117 10.94897461 2.81762695 C55.67774146 15.09188727 100.88521522 33.68619005 135.36474609 65.49633789 C137.43214989 67.3926462 139.54787202 69.20475895 141.69287109 71.01196289 C166.24154153 92.61479287 184.04951472 127.96823368 186.63037109 160.57446289 C188.19433903 186.93568352 182.90499937 209.74435545 165.06787109 229.88696289 C163.59597761 231.45631621 162.11741376 233.01945666 160.63037109 234.57446289 C160.07994141 235.18805664 159.52951172 235.80165039 158.96240234 236.43383789 C146.46543632 249.88736181 127.73217542 258.65575148 110.63037109 264.57446289 C110.44861328 266.18901367 110.44861328 266.18901367 110.26318359 267.83618164 C109.82825912 271.66254953 109.36716681 275.48538272 108.89941406 279.30786133 C108.65636502 281.35547235 108.44055587 283.4062719 108.22802734 285.45727539 C108.09267578 286.58907227 107.95732422 287.72086914 107.81787109 288.88696289 C107.65351563 290.39709961 107.65351563 290.39709961 107.48583984 291.93774414 C106.3401693 295.46892048 104.76055816 296.6562551 101.63037109 298.57446289 C99.49755859 298.88696289 99.49755859 298.88696289 97.50537109 298.57446289 C96.84279297 298.49196289 96.18021484 298.40946289 95.49755859 298.32446289 C92.89012472 297.27712543 92.01597745 295.99397735 90.63037109 293.57446289 C89.14941373 284.60909735 91.45576279 274.52036365 92.63037109 265.57446289 C92.04513672 265.5602832 91.45990234 265.54610352 90.85693359 265.53149414 C71.38082768 264.44948826 52.03478761 256.74727502 37.63037109 243.57446289 C36.99873047 243.02274414 36.36708984 242.47102539 35.71630859 241.90258789 C23.58432393 230.67916596 16.528247 213.27889101 15.37548828 196.96801758 C15.30138358 193.26969882 15.31830998 189.58541722 15.38037109 185.88696289 C15.38552734 184.64624023 15.39068359 183.40551758 15.39599609 182.12719727 C15.43982724 176.95238242 15.53794431 171.83541681 16.12646484 166.69165039 C21.7033283 116.92144546 9.44206972 64.22400574 -12.0168457 19.40039062 C-14.46351759 14.2001488 -16.18829314 10.35017659 -15.36962891 4.57446289 C-11.29543319 -1.40951207 -6.55666439 -1.17744344 0 0 Z M33.63037109 28.57446289 C36.54020049 32.71876537 39.490359 36.54527959 43.19287109 40.01196289 C97.06858636 92.86342501 107.56566634 174.18940108 110.63037109 245.57446289 C132.72769496 238.79757634 152.27793394 223.21125086 163.31787109 202.88696289 C172.33094737 183.57749153 171.58600937 162.65636048 165.63037109 142.57446289 C165.42669922 141.87546875 165.22302734 141.17647461 165.01318359 140.45629883 C159.81739658 123.14502696 151.3508096 107.32019318 139.63037109 93.57446289 C138.85564453 92.66051758 138.08091797 91.74657227 137.28271484 90.80493164 C132.73480241 85.60174537 127.96884472 80.95183652 122.63037109 76.57446289 C122.13359863 76.15471191 121.63682617 75.73496094 121.125 75.30249023 C100.59481683 57.96790092 61.68728972 28.57446289 33.63037109 28.57446289 Z M14.63037109 35.57446289 C15.85207651 41.56046937 17.44194611 47.28584605 19.38037109 53.07446289 C28.82048214 82.34757505 33.83142871 112.68917268 33.81787109 143.44946289 C33.81892853 144.11955383 33.81998596 144.78964478 33.82107544 145.4800415 C33.8251467 154.35250764 33.47321194 163.11710853 32.56787109 171.94946289 C30.62569587 191.03033682 31.69723143 209.36900236 43.63427734 225.23852539 C55.16803711 238.89746809 71.49279242 245.24731909 88.63037109 248.57446289 C90.29682349 248.60118704 91.96401187 248.60647387 93.63037109 248.57446289 C95.37463206 177.53384442 79.28392831 103.72829108 30.04052734 50.10571289 C27.10302699 47.02062338 24.13117788 43.97293908 21.13037109 40.94946289 C20.6012915 40.41562988 20.07221191 39.88179687 19.52709961 39.33178711 C17.4328868 36.73900938 17.4328868 36.73900938 14.63037109 35.57446289 Z " fill="#52df0c" transform="translate(104.36962890625,145.425537109375)"/>
<path d="M0 0 C1.08684082 -0.00306152 2.17368164 -0.00612305 3.29345703 -0.00927734 C5.04118408 0.02431885 5.04118408 0.02431885 6.82421875 0.05859375 C8.63768799 0.08058838 8.63768799 0.08058838 10.48779297 0.10302734 C62.39503736 1.17180602 113.65384021 20.8461611 154.51171875 52.49609375 C155.41019531 53.181875 156.30867187 53.86765625 157.234375 54.57421875 C163.99319267 59.8441685 170.31108923 65.58764049 176.51171875 71.49609375 C177.11209961 72.06779297 177.71248047 72.63949219 178.33105469 73.22851562 C186.66706757 81.22454656 194.31056483 89.43732803 201.19238281 98.71923828 C202.55240057 100.55088322 203.93321249 102.36549858 205.31640625 104.1796875 C211.68475605 112.60702708 217.31641661 121.3035089 222.51171875 130.49609375 C222.87475098 131.12644531 223.2377832 131.75679687 223.61181641 132.40625 C244.59586904 169.06123386 254.92117942 211.1686739 254.82739258 253.22338867 C254.82424085 256.16297862 254.84776801 259.10154955 254.87304688 262.04101562 C254.91770612 275.41415567 253.71223417 288.31026086 251.51171875 301.49609375 C251.22953491 303.20164429 251.22953491 303.20164429 250.94165039 304.94165039 C239.33566915 369.55337709 200.78106569 427.68206991 147.51171875 465.49609375 C152.16419578 473.75957007 152.16419578 473.75957007 157.44921875 481.62109375 C159.51171875 484.49609375 159.51171875 484.49609375 159.51171875 486.49609375 C152.1653762 486.92780626 144.81875418 487.35450255 137.47192383 487.77783203 C134.97641517 487.9222043 132.48097088 488.06769414 129.9855957 488.21435547 C126.38379294 488.42584539 122.78177222 488.63321837 119.1796875 488.83984375 C118.07715134 488.90546509 116.97461517 488.97108643 115.83866882 489.03869629 C109.0544954 489.42300702 102.30643784 489.57603846 95.51171875 489.49609375 C96.99479585 484.48485429 99.15480686 480.18300273 101.63671875 475.62109375 C106.64634183 466.27063131 111.40503683 456.80159453 116.13671875 447.30859375 C116.50186584 446.57634583 116.86701294 445.8440979 117.2432251 445.08966064 C119.33542363 440.89314547 121.42478958 436.69523171 123.51171875 432.49609375 C124.17171875 432.49609375 124.83171875 432.49609375 125.51171875 432.49609375 C126.74853516 434.02490234 126.74853516 434.02490234 128.11328125 436.14453125 C128.603125 436.9025 129.09296875 437.66046875 129.59765625 438.44140625 C130.10554687 439.24320312 130.6134375 440.045 131.13671875 440.87109375 C131.65234375 441.66515625 132.16796875 442.45921875 132.69921875 443.27734375 C136.51171875 449.22807126 136.51171875 449.22807126 136.51171875 451.49609375 C155.53541028 437.6986911 173.17082385 422.18693631 187.20996094 403.23779297 C188.50704609 401.50234558 189.83704397 399.79719799 191.17578125 398.09375 C228.08480833 350.43821241 242.72926472 286.91010164 235.90966797 227.58056641 C228.00054378 166.27757559 196.74461017 107.59751747 147.51171875 69.49609375 C146.96418945 69.07215332 146.41666016 68.64821289 145.85253906 68.21142578 C131.12837899 56.89754983 115.38559874 47.2553838 98.51171875 39.49609375 C97.79467773 39.16512695 97.07763672 38.83416016 96.33886719 38.49316406 C70.92971877 26.9234211 43.3958291 19.67731372 15.49609375 18.07421875 C13.60685181 17.96037842 13.60685181 17.96037842 11.67944336 17.84423828 C9.13955718 17.69722695 6.59859859 17.56756073 4.05688477 17.45654297 C2.29622681 17.35623779 2.29622681 17.35623779 0.5 17.25390625 C-0.55662842 17.20379395 -1.61325684 17.15368164 -2.7019043 17.10205078 C-6.10270081 16.36247513 -7.34141582 15.18480969 -9.48828125 12.49609375 C-10.01953125 10.49609375 -10.01953125 10.49609375 -9.98828125 8.49609375 C-10.00375 7.50609375 -10.00375 7.50609375 -10.01953125 6.49609375 C-8.63967003 1.3013221 -4.94377571 -0.00950488 0 0 Z " fill="#52df0c" transform="translate(257.48828125,-0.49609375)"/>
<path d="M0 0 C-1.28044091 4.11944819 -2.82389626 7.83522681 -4.8359375 11.6484375 C-5.40038574 12.72569092 -5.96483398 13.80294434 -6.54638672 14.9128418 C-7.1498291 16.055354 -7.75327148 17.19786621 -8.375 18.375 C-9.63829267 20.78365648 -10.89769112 23.19433596 -12.15625 25.60546875 C-12.4752829 26.2160463 -12.7943158 26.82662384 -13.12301636 27.45570374 C-18.22084982 37.23324243 -23.10425482 47.12016332 -28 57 C-28.66 57 -29.32 57 -30 57 C-31.23681641 55.47119141 -31.23681641 55.47119141 -32.6015625 53.3515625 C-33.09140625 52.59359375 -33.58125 51.835625 -34.0859375 51.0546875 C-34.59382813 50.25289062 -35.10171875 49.45109375 -35.625 48.625 C-36.140625 47.8309375 -36.65625 47.036875 -37.1875 46.21875 C-41 40.26802249 -41 40.26802249 -41 38 C-59.54372099 51.44929215 -77.13073271 66.65753899 -91 85 C-91.47083008 85.61085449 -91.94166016 86.22170898 -92.42675781 86.85107422 C-131.28931161 137.50462969 -148.15696748 201.77599563 -140 265 C-132.43256789 317.09792563 -109.31795676 363.18952447 -73 401 C-72.1440625 401.8971875 -71.288125 402.794375 -70.40625 403.71875 C-57.37802774 417.07680067 -41.89970441 428.58344683 -25.77685547 437.96240234 C-24.54182974 438.68359764 -23.31202062 439.4137707 -22.08642578 440.15087891 C6.85987792 457.52425867 40.59637443 468.18798914 74.2421875 470.765625 C75.05373291 470.82840637 75.86527832 470.89118774 76.70141602 470.95587158 C80.78815507 471.26597726 84.87431585 471.54692818 88.96582031 471.78613281 C90.47983271 471.88845007 91.99383078 471.99097968 93.5078125 472.09375 C94.55326736 472.14212006 94.55326736 472.14212006 95.61984253 472.19146729 C98.9712049 472.43385701 100.77296531 472.8199019 103.43505859 474.93164062 C105.14297729 477.18897092 105.54366276 478.20558333 105.5 481 C105.5103125 481.66 105.520625 482.32 105.53125 483 C104.75783341 485.91168598 103.29822847 487.09229463 101 489 C98.51171875 489.51757812 98.51171875 489.51757812 95.6875 489.53125 C94.62635986 489.53946777 93.56521973 489.54768555 92.47192383 489.55615234 C91.32618896 489.53762207 90.1804541 489.5190918 89 489.5 C87.80463623 489.48791504 86.60927246 489.47583008 85.37768555 489.46337891 C33.20778727 488.33983479 -17.93218223 468.81255887 -59 437 C-60.34771484 435.97132813 -60.34771484 435.97132813 -61.72265625 434.921875 C-68.48147392 429.65192525 -74.79937048 423.90845326 -81 418 C-81.60038086 417.42830078 -82.20076172 416.85660156 -82.81933594 416.26757812 C-91.16808817 408.2593274 -98.81336051 400.03511118 -105.70263672 390.73730469 C-106.98787142 389.01624144 -108.3042016 387.323612 -109.62890625 385.6328125 C-133.53449932 354.68099233 -148.84676624 317.29378791 -156 279 C-156.16226074 278.19498047 -156.32452148 277.38996094 -156.49169922 276.56054688 C-161.96455505 248.56934616 -161.8459259 214.91127604 -156 187 C-155.80132324 186.02514648 -155.60264648 185.05029297 -155.39794922 184.04589844 C-146.34815936 140.78315772 -127.96787916 100.56425851 -99 67 C-98.34257813 66.23171875 -97.68515625 65.4634375 -97.0078125 64.671875 C-83.45817677 49.23040334 -68.74140012 35.88412736 -52 24 C-56.65247703 15.73652368 -56.65247703 15.73652368 -61.9375 7.875 C-64 5 -64 5 -64 3 C-56.65365745 2.56828749 -49.30703543 2.1415912 -41.96020508 1.71826172 C-39.46469642 1.57388945 -36.96925213 1.42839961 -34.47387695 1.28173828 C-30.87207419 1.07024836 -27.27005347 0.86287538 -23.66796875 0.65625 C-22.56543259 0.59062866 -21.46289642 0.52500732 -20.32695007 0.45739746 C-13.54277665 0.07308673 -6.79471909 -0.07994471 0 0 Z " fill="#52df0c" transform="translate(159,23)"/>
</svg>
