<?xml version="1.0" encoding="UTF-8"?>
<svg version="1.1" xmlns="http://www.w3.org/2000/svg" width="512" height="512">
<path d="M0 0 C22.54601951 18.25500289 35.62178976 43.51037687 39.23388672 72.18139648 C39.92752712 80.14959062 40.30070637 88.21010714 38.77685547 96.09545898 C37.035786 103.3067087 37.035786 103.3067087 39.06591797 110.01342773 C41.4592576 111.83253351 43.94322275 113.27028297 46.54638672 114.77124023 C48.24986627 116.18639793 49.91643058 117.64698813 51.54638672 119.14624023 C52.38298828 119.91323242 53.21958984 120.68022461 54.08154297 121.47045898 C54.89494141 122.2297168 55.70833984 122.98897461 56.54638672 123.77124023 C57.28759766 124.45831055 58.02880859 125.14538086 58.79248047 125.85327148 C84.46789087 150.52180305 101.41794391 185.7250816 106.54638672 220.77124023 C106.57787967 222.43760933 106.58656915 224.10505803 106.54638672 225.77124023 C107.43326172 225.83311523 108.32013672 225.89499023 109.23388672 225.95874023 C125.23401514 228.33150477 140.6797072 238.30878446 152.54638672 248.77124023 C153.15482422 249.2365918 153.76326172 249.70194336 154.39013672 250.18139648 C173.62968638 265.01944539 184.86738291 291.66974864 188.23730469 315.03540039 C191.36537147 342.723486 185.11581749 371.1440399 168.10888672 393.58374023 C166.93722817 394.99289714 165.7491694 396.38855416 164.54638672 397.77124023 C163.88123047 398.56788086 163.21607422 399.36452148 162.53076172 400.18530273 C144.92261427 420.64368988 119.08888589 434.60116382 91.94091797 436.67749023 C90.755625 436.72389648 90.755625 436.72389648 89.54638672 436.77124023 C87.850625 436.84858398 87.850625 436.84858398 86.12060547 436.92749023 C58.79214349 437.57623711 33.08524397 429.492586 12.28076172 411.54467773 C9.77221624 409.56728297 9.77221624 409.56728297 7.27685547 409.76342773 C4.08239105 410.94250044 0.91285959 412.16888811 -2.24194336 413.45043945 C-14.08110519 418.23585681 -25.90852179 421.45129155 -38.45361328 423.77124023 C-39.15228516 423.90256348 -39.85095703 424.03388672 -40.57080078 424.16918945 C-69.99524521 429.43516056 -100.70487291 425.08829461 -128.55029297 414.96972656 C-129.39237305 414.67090576 -130.23445312 414.37208496 -131.10205078 414.06420898 C-131.84632324 413.79116943 -132.5905957 413.51812988 -133.35742188 413.23681641 C-135.78242089 412.69821017 -137.13198431 412.94022868 -139.45361328 413.77124023 C-140.8849076 414.71979032 -142.27707182 415.72829172 -143.64111328 416.77124023 C-155.91322271 425.51646777 -168.82045882 431.31778515 -183.45361328 434.77124023 C-184.91927734 435.13862305 -184.91927734 435.13862305 -186.41455078 435.51342773 C-212.82976741 441.03867362 -241.78210359 434.91268856 -264.45361328 420.77124023 C-268.62741839 417.99231405 -272.56256674 414.93127655 -276.45361328 411.77124023 C-277.18064453 411.19760742 -277.90767578 410.62397461 -278.65673828 410.03295898 C-298.85652623 393.37211026 -311.38521506 366.49401932 -313.85986328 340.72436523 C-316.39228103 310.21779974 -307.4829931 282.18962695 -287.89501953 258.65014648 C-277.22936948 246.26991921 -259.3807008 230.71649021 -242.45361328 228.77124023 C-242.42783203 228.1022168 -242.40205078 227.43319336 -242.37548828 226.74389648 C-241.07305468 204.69132763 -233.08485219 182.97271078 -222.45361328 163.77124023 C-221.93178467 162.8225708 -221.93178467 162.8225708 -221.39941406 161.85473633 C-210.65614444 142.5660193 -194.9256602 121.3948546 -175.57861328 110.09155273 C-172.99652037 107.82037128 -172.99652037 107.82037128 -173.61767578 103.91186523 C-173.82118652 102.72753906 -173.82118652 102.72753906 -174.02880859 101.51928711 C-178.36178085 73.48943897 -172.152597 44.64008586 -155.75585938 21.53881836 C-138.12817555 -2.38777161 -113.6651182 -17.50209494 -84.35595703 -22.78735352 C-53.43791765 -26.2845892 -24.47790067 -19.2596871 0 0 Z M-128.51611328 24.33374023 C-140.23196505 36.51524589 -150.96080045 53.97248103 -151.57861328 71.27124023 C-151.53736328 72.09624023 -151.49611328 72.92124023 -151.45361328 73.77124023 C-146.91293965 72.26374467 -142.37550711 70.74799554 -137.84814453 69.20092773 C-136.32080078 68.68269857 -134.79345703 68.1644694 -133.26611328 67.64624023 C-132.49847656 67.38198242 -131.73083984 67.11772461 -130.93994141 66.84545898 C-124.88571781 64.80144519 -119.81848454 63.59278218 -113.39111328 64.22827148 C-104.62361176 64.89099189 -96.80814194 65.13579832 -89.62384033 59.39277649 C-86.97602097 57.07769883 -84.49994183 54.63345252 -82.07861328 52.08374023 C-81.60294922 51.58484283 -81.12728516 51.08594543 -80.63720703 50.57192993 C-76.02603313 45.64395859 -72.13468645 41.42734321 -70.45361328 34.77124023 C-70.84453619 27.31875241 -72.86462013 20.02861386 -74.51611328 12.77124023 C-74.93860352 10.8937207 -74.93860352 10.8937207 -75.36962891 8.97827148 C-76.06091725 5.90848259 -76.75566853 2.83952131 -77.45361328 -0.22875977 C-96.35068009 -0.22875977 -115.28751976 11.9255246 -128.51611328 24.33374023 Z M-54.45361328 0.77124023 C-53.46087052 7.14815256 -52.31615072 13.42724327 -50.82861328 19.70874023 C-48.17247532 32.07680826 -48.52901311 42.77140691 -55.27392578 53.72827148 C-62.59702306 63.95173525 -75.56989411 81.28556575 -88.45361328 83.77124023 C-90.30205833 83.87197624 -92.15332922 83.92571315 -94.00439453 83.94702148 C-113.640402 84.32090158 -128.35854004 87.89183596 -146.28955078 95.74780273 C-147.06862793 96.0889209 -147.84770508 96.43003906 -148.65039062 96.78149414 C-150.62699557 97.6439208 -150.62699557 97.6439208 -151.45361328 99.77124023 C-150.88345267 102.00031037 -150.22435664 104.2071244 -149.51611328 106.39624023 C-149.13583984 107.58475586 -148.75556641 108.77327148 -148.36376953 109.99780273 C-148.06341797 110.91303711 -147.76306641 111.82827148 -147.45361328 112.77124023 C-141.35005197 111.0406889 -135.89009377 108.08142092 -130.26611328 105.20874023 C-128.29436172 104.20565783 -126.32174368 103.2042763 -124.34814453 102.20483398 C-123.48036377 101.76196045 -122.61258301 101.31908691 -121.71850586 100.86279297 C-114.91587275 97.58430072 -105.94951478 97.60774393 -98.67626953 99.48999023 C-90.8763129 102.79663852 -86.26544488 107.37786863 -82.59960938 114.93481445 C-80.71372543 119.60251783 -80.04837999 124.30314738 -79.39111328 129.27124023 C-79.23610352 130.33334717 -79.08109375 131.3954541 -78.92138672 132.48974609 C-78.59288796 134.74134502 -78.2709224 136.99390558 -77.95507812 139.24731445 C-77.09590009 145.28498519 -76.14160388 151.3079118 -75.20361328 157.33374023 C-74.61817907 161.14592001 -74.03550821 164.95851875 -73.45361328 168.77124023 C-61.84121341 169.38782784 -51.67614701 167.6507907 -40.45361328 164.77124023 C-41.59501721 161.34702844 -42.40598947 160.87471678 -45.20361328 158.77124023 C-51.84663218 153.07040894 -54.46073765 145.96340713 -55.51611328 137.39624023 C-55.92803776 126.54460475 -52.49257414 118.12895897 -45.55517578 109.93139648 C-43.45361328 107.77124023 -43.45361328 107.77124023 -41.41455078 106.26733398 C-38.57865225 104.12582213 -36.7477752 102.43580669 -36.10742188 98.81225586 C-35.73918269 94.71680339 -35.6818668 90.62279967 -35.60986328 86.51342773 C-35.33328036 73.08319953 -30.05863353 61.69548889 -20.90283203 52.02514648 C-14.17688316 45.83555717 -5.76771569 42.34345914 2.54638672 38.77124023 C-2.47260173 24.02796166 -19.14930763 13.51514689 -32.45361328 6.77124023 C-39.46418516 3.51702161 -46.64910021 0.77124023 -54.45361328 0.77124023 Z M-5.82470703 67.77124023 C-12.4113977 75.02368243 -14.34599861 82.62048723 -14.62939453 92.32983398 C-14.65324219 93.1284082 -14.67708984 93.92698242 -14.70166016 94.74975586 C-14.74451962 96.38490946 -14.77582997 98.02040785 -14.79541016 99.65600586 C-15.04793956 106.944122 -17.04750545 112.47458786 -22.14501953 117.78295898 C-23.09248047 118.6659668 -24.03994141 119.54897461 -25.01611328 120.45874023 C-29.76942913 124.91537694 -33.1138452 128.09556663 -33.95361328 134.70874023 C-33.77791656 138.31728066 -32.77779126 140.57199645 -30.23095703 143.25170898 C-26.53592103 146.41076174 -22.51319437 149.10689381 -18.45361328 151.77124023 C-4.37631452 145.32433571 5.91687515 129.57871418 11.41210938 115.56323242 C17.72837056 97.6717791 19.64608172 77.03401752 13.54638672 58.77124023 C6.93164593 58.77124023 -0.82627722 63.55510175 -5.82470703 67.77124023 Z M-117.15673828 122.32592773 C-118.75001953 123.12450195 -118.75001953 123.12450195 -120.37548828 123.93920898 C-121.47376953 124.5025293 -122.57205078 125.06584961 -123.70361328 125.64624023 C-125.37423828 126.47961914 -125.37423828 126.47961914 -127.07861328 127.32983398 C-132.60085971 129.6412243 -132.60085971 129.6412243 -136.45361328 133.77124023 C-126.18206172 147.33983303 -113.04607039 158.77593166 -96.45361328 163.77124023 C-98.44362711 146.83412629 -98.44362711 146.83412629 -100.89111328 129.95874023 C-100.98884033 129.26723877 -101.08656738 128.5757373 -101.18725586 127.86328125 C-101.68754108 124.90103647 -102.18898976 123.06018364 -104.23876953 120.82202148 C-109.04884147 118.53999441 -112.62169137 120.04188042 -117.15673828 122.32592773 Z M-181.45361328 144.77124023 C-184.70402282 148.24556456 -187.62256364 151.94932321 -190.45361328 155.77124023 C-191.05173828 156.56530273 -191.64986328 157.35936523 -192.26611328 158.17749023 C-205.98501441 177.04097929 -216.55362156 199.47972777 -219.45361328 222.77124023 C-218.72996582 222.78058594 -218.00631836 222.78993164 -217.26074219 222.79956055 C-182.59446424 223.36002343 -153.35636519 231.13164345 -128.17944336 256.56201172 C-108.01666052 277.78199637 -99.89238435 305.54396683 -100.23876953 334.30639648 C-100.85464039 356.1908512 -109.19828553 375.34691391 -120.45361328 393.77124023 C-86.94048292 408.25603682 -47.29161798 405.68979687 -13.45361328 393.77124023 C-11.09068039 392.82455411 -8.77586139 391.81578557 -6.45361328 390.77124023 C-6.94990234 389.98104492 -7.44619141 389.19084961 -7.95751953 388.37670898 C-23.75728675 362.14369889 -28.89274548 332.29690459 -21.71923828 302.33374023 C-17.48541462 286.33929529 -9.65305248 272.69301604 0.54638672 259.77124023 C1.01431641 259.13573242 1.48224609 258.50022461 1.96435547 257.84545898 C15.91711975 239.85712596 42.32619332 227.25330716 64.36328125 224.4074707 C70.74620518 223.71745267 77.14118287 223.20311091 83.54638672 222.77124023 C83.04112134 216.9332742 82.16588808 211.44788698 80.48388672 205.83374023 C80.26837158 205.11210693 80.05285645 204.39047363 79.83081055 203.64697266 C71.60505379 177.25233044 53.43163441 143.64955145 28.54638672 129.77124023 C28.15708984 130.55885742 27.76779297 131.34647461 27.36669922 132.15795898 C13.29804087 159.54970161 -9.63935001 177.21211561 -38.66064453 186.76342773 C-65.51124507 193.89777886 -94.94978048 190.99975867 -119.45361328 177.77124023 C-139.88331973 165.82132821 -153.00747537 150.01418526 -164.45361328 129.77124023 C-169.24662145 129.77124023 -178.10408654 141.42255234 -181.45361328 144.77124023 Z M-270.51611328 273.01342773 C-285.74850065 291.16138925 -292.96119379 313.07395906 -291.45361328 336.77124023 C-289.61667794 353.4245093 -283.69194973 370.08501995 -272.45361328 382.77124023 C-271.79361328 382.77124023 -271.13361328 382.77124023 -270.45361328 382.77124023 C-270.14810547 382.05581055 -269.84259766 381.34038086 -269.52783203 380.60327148 C-261.68945589 363.53548343 -249.03795951 351.62615486 -231.45361328 344.77124023 C-232.54115988 341.50860045 -233.01693221 341.14935979 -235.64111328 339.20874023 C-242.65480705 333.37599696 -246.9912378 324.71469358 -248.45361328 315.77124023 C-249.62673689 301.80962096 -247.43100496 290.45834692 -238.65283203 279.18139648 C-231.3730238 271.20334732 -220.45913296 266.36763998 -209.72705078 265.56811523 C-196.85483068 265.35993917 -186.28828504 268.67946758 -176.57861328 277.33374023 C-175.87736328 278.13811523 -175.17611328 278.94249023 -174.45361328 279.77124023 C-173.77298828 280.53436523 -173.09236328 281.29749023 -172.39111328 282.08374023 C-164.91947184 292.44762998 -163.4354422 303.1794283 -164.45361328 315.77124023 C-166.68925475 327.02977004 -172.4934216 335.7779199 -181.45361328 342.77124023 C-181.45361328 343.43124023 -181.45361328 344.09124023 -181.45361328 344.77124023 C-180.58220703 345.16053711 -179.71080078 345.54983398 -178.81298828 345.95092773 C-161.71843814 353.98018613 -150.28892768 365.40547131 -142.45361328 382.77124023 C-135.35080034 380.16687549 -131.83969414 370.62712495 -128.70751953 364.17358398 C-119.21992947 342.05164706 -119.33386474 318.81381791 -127.98828125 296.42919922 C-136.74337752 275.06454517 -154.06103539 259.18231711 -175.07470703 250.22827148 C-209.01200208 237.55289623 -245.91126646 246.26497683 -270.51611328 273.01342773 Z M19.08007812 271.33032227 C3.06674039 289.33657455 -4.83409279 311.66397775 -3.45361328 335.77124023 C-1.15614626 358.5849768 9.24168018 380.28664216 27.11035156 395.06469727 C46.04893891 409.72552759 68.93599622 416.9654799 92.78857422 413.99169922 C115.69410779 410.50856428 135.68754411 398.88333007 149.85888672 380.52124023 C163.15540386 360.95596342 169.636712 338.45131514 165.35888672 314.83374023 C161.83126737 297.02532992 154.17533332 282.7933958 141.54638672 269.77124023 C141.00755859 269.15893555 140.46873047 268.54663086 139.91357422 267.91577148 C127.74101987 254.55042915 107.30819599 245.70586372 89.421875 244.64526367 C62.77606811 243.76835522 37.79238176 251.43409 19.08007812 271.33032227 Z M-222.76611328 295.14624023 C-226.45623532 299.81315928 -227.6816554 303.69920614 -227.39111328 309.64624023 C-226.55319922 316.19182774 -223.68066354 320.65554248 -218.95361328 325.14624023 C-213.23177246 328.86543677 -208.20336473 329.58533239 -201.45361328 328.77124023 C-195.23578857 326.93988798 -190.99833613 323.11164506 -187.45361328 317.77124023 C-184.8885388 312.1747141 -184.68331634 306.73025534 -186.39111328 300.83374023 C-188.53085895 295.54122921 -192.9257902 292.06047403 -197.45361328 288.77124023 C-207.42087429 285.4488199 -215.76646055 287.57587242 -222.76611328 295.14624023 Z M-235.45361328 371.77124023 C-236.06591797 372.21081055 -236.67822266 372.65038086 -237.30908203 373.10327148 C-244.78783037 378.83202573 -249.96957549 387.76660323 -252.45361328 396.77124023 C-252.6514553 399.31763774 -252.6514553 399.31763774 -251.45361328 401.77124023 C-248.89989284 403.4175162 -246.64620773 404.63095088 -243.89111328 405.83374023 C-243.120979 406.17663086 -242.35084473 406.51952148 -241.55737305 406.87280273 C-218.67753942 416.72829868 -194.92087612 416.38957874 -171.82861328 407.27124023 C-167.70839673 405.45812042 -164.05247456 403.4703862 -160.45361328 400.77124023 C-160.88581599 391.26278066 -166.10818087 382.33057743 -172.54345703 375.51342773 C-182.69920172 366.25072399 -195.46541468 361.18156112 -209.16845703 361.45874023 C-219.10766929 362.40420632 -227.66450098 365.57429117 -235.45361328 371.77124023 Z " fill="#ffffff" transform="translate(318.45361328125,49.228759765625)"/>
<path d="M0 0 C6.14522388 5.43066297 10.2036884 10.99824832 12 19 C12.88816406 19.10441406 13.77632813 19.20882813 14.69140625 19.31640625 C21.99882052 20.82620259 27.5695017 25.94531584 31.9375 31.8125 C37.94642627 41.2085333 39.58785179 51.13064649 37.37890625 62.078125 C34.27775983 72.82876593 28.26473522 80.30604174 18.58984375 85.84375 C11.6592755 88.93794035 5.51814199 89.25749945 -1.9375 89.125 C-2.90751953 89.11597656 -3.87753906 89.10695313 -4.87695312 89.09765625 C-7.25156407 89.07426107 -9.62564776 89.04148176 -12 89 C-11.97381592 89.72590332 -11.94763184 90.45180664 -11.9206543 91.19970703 C-11.8163319 94.50791541 -11.75156128 97.8157772 -11.6875 101.125 C-11.64560547 102.26710938 -11.60371094 103.40921875 -11.56054688 104.5859375 C-11.4224055 114.09006383 -11.4224055 114.09006383 -14.39453125 117.7421875 C-17.96335301 120.83480966 -20.12428585 121.39413089 -24.89453125 121.359375 C-28.61593453 120.72418186 -30.40312849 118.66020984 -33 116 C-34.3308911 113.33821779 -34.11268993 111.31260604 -34.09765625 108.3359375 C-34.09443359 107.21445312 -34.09121094 106.09296875 -34.08789062 104.9375 C-34.07532227 103.1740625 -34.07532227 103.1740625 -34.0625 101.375 C-34.05798828 100.19164062 -34.05347656 99.00828125 -34.04882812 97.7890625 C-34.03701467 94.85932493 -34.02054258 91.92968728 -34 89 C-34.86782104 89.0314209 -34.86782104 89.0314209 -35.75317383 89.06347656 C-50.01715493 89.51193125 -61.56669334 89.58625515 -72.99609375 79.9765625 C-80.54981565 72.52591283 -84.01239443 63.64293468 -84.4375 53.125 C-84.11327663 42.60124968 -80.50142424 33.44258954 -73 26 C-68.37398116 22.17990779 -64.15569935 19.31567689 -58 19 C-57.85304688 18.443125 -57.70609375 17.88625 -57.5546875 17.3125 C-54.56601973 7.14415909 -49.20741363 1.1420111 -40 -4 C-26.58235281 -10.85612311 -11.93530451 -8.99161954 0 0 Z M-35 21 C-36.37280421 23.41875027 -36.90504252 25.48903831 -37.41015625 28.20703125 C-37.56355469 29.00496094 -37.71695313 29.80289063 -37.875 30.625 C-37.99617188 31.38039063 -38.11734375 32.13578125 -38.2421875 32.9140625 C-39.26451702 35.72810355 -40.40969059 36.52863377 -43 38 C-44.94207057 38.48687006 -46.90385486 38.89890545 -48.875 39.25 C-54.05799184 40.45873192 -56.91666054 41.81341591 -60.0078125 46.17578125 C-61.50820389 48.93437488 -62.06576261 50.84339472 -62 54 C-60.48776589 58.61629359 -58.82700614 61.96090689 -55 65 C-51.41515745 66.69806701 -48.55470019 67.25791997 -44.60229492 67.29052734 C-43.5473735 67.30328705 -42.49245209 67.31604675 -41.40556335 67.32919312 C-39.71014153 67.33253159 -39.71014153 67.33253159 -37.98046875 67.3359375 C-36.80793045 67.3425943 -35.63539215 67.3492511 -34.42732239 67.35610962 C-31.94855313 67.36622608 -29.46975668 67.37092695 -26.9909668 67.37060547 C-23.21161647 67.37497214 -19.43344021 67.41128692 -15.65429688 67.44921875 C-13.24219148 67.45508847 -10.83008055 67.45905682 -8.41796875 67.4609375 C-7.29376022 67.47530853 -6.1695517 67.48967957 -5.01127625 67.50448608 C1.79145227 67.46515893 6.21770852 66.6641015 12 63 C14.7868862 59.58381692 15.82406562 56.39835947 16 52 C14.63641504 47.42797983 12.84314191 44.0180734 9.015625 41.05078125 C5.47265615 39.20376842 1.61294583 38.58349326 -2.29296875 37.87109375 C-5.52848091 36.82994049 -6.40661336 35.96663434 -8 33 C-8.51953125 30.66796875 -8.51953125 30.66796875 -8.8125 28.1875 C-9.74115782 22.82192146 -11.95974217 19.59012041 -16 16 C-23.2778275 12.36108625 -30.17013222 15.07951692 -35 21 Z " fill="#ffffff" transform="translate(423,322)"/>
</svg>
